<svg width="24" height="24" viewBox="0 0 24 24" fill="none" xmlns="http://www.w3.org/2000/svg">
<path d="M11 4H23C23.5523 4 24 4.44772 24 5V5.4C24 5.95229 23.5523 6.4 23 6.4H11V4Z" fill="#979797"/>
<path d="M1 5C1 4.44771 1.44772 4 2 4H4.54545V6.4H2C1.44771 6.4 1 5.95228 1 5.4V5Z" fill="#979797"/>
<path d="M11.8485 5C11.8485 7.22359 10.0772 9 7.92424 9C5.77128 9 4 7.22359 4 5C4 2.77641 5.77128 1 7.92424 1C10.0772 1 11.8485 2.77641 11.8485 5Z" stroke="#979797" stroke-width="2"/>
<path d="M13.2606 20.4H1.52774C0.975458 20.4 0.527743 19.9523 0.527743 19.4V19C0.527743 18.4477 0.975459 18 1.52774 18H13.2606V20.4Z" fill="#979797"/>
<path d="M24 19.4C24 19.9523 23.5523 20.4 23 20.4H20.5274V18H23C23.5523 18 24 18.4477 24 19V19.4Z" fill="#979797"/>
<path d="M13.5277 19C13.5277 16.7566 15.273 15 17.3508 15C19.4285 15 21.1738 16.7566 21.1738 19C21.1738 21.2434 19.4285 23 17.3508 23C15.273 23 13.5277 21.2434 13.5277 19Z" stroke="#979797" stroke-width="2"/>
</svg>
