<svg width="20" height="20" viewBox="0 0 20 20" fill="none" xmlns="http://www.w3.org/2000/svg">
<circle cx="10" cy="10" r="10" fill="white"/>
<path d="M9.58333 9.44028C9.58333 11.4396 7.96167 13.531 5.41667 14L5.00667 13.1732C5.92958 12.8485 6.74125 11.718 6.83167 10.9387C5.79375 10.7862 5 9.94817 5 8.93628C5 7.69883 6.07667 7 7.16625 7C8.4225 7 9.58333 7.89639 9.58333 9.44028V9.44028ZM15 9.44028C15 11.4396 13.3783 13.531 10.8333 14L10.4233 13.1732C11.3462 12.8485 12.1579 11.718 12.2483 10.9387C11.2104 10.7862 10.4167 9.94817 10.4167 8.93628C10.4167 7.69883 11.4933 7 12.5829 7C13.8392 7 15 7.89639 15 9.44028V9.44028Z" fill="#484848" fill-opacity="0.7"/>
</svg>
